<?xml version="1.0" encoding="utf-8"?>
<!-- Generator: Adobe Illustrator 21.1.0, SVG Export Plug-In . SVG Version: 6.00 Build 0)  -->
<svg version="1.1" id="Layer_1" xmlns="http://www.w3.org/2000/svg" xmlns:xlink="http://www.w3.org/1999/xlink" x="0px" y="0px"
	 viewBox="0 0 189.5 200" style="enable-background:new 0 0 189.5 200;" xml:space="preserve">
<style type="text/css">
	.st0{fill:#010101;}
</style>
<title>Icons-yaar</title>
<path class="st0" d="M71.8,69.9L71.8,69.9c4.9,0,9,3.9,9,8.8l0.1,6c0,4.9-3.9,9-8.8,9l0,0c-4.9,0-9-3.9-9-8.8l-0.1-6
	C62.9,74,66.9,69.9,71.8,69.9z"/>
<path class="st0" d="M184.7,88c-1.4-13.8-5.3-27.3-11.5-39.7c-13.8-27.1-37.1-42-67.2-43.1C57.8,3.4,36.7,31,28.4,47.6
	c-4,8.2-6.2,17.1-6.3,26.2c-0.2,5.2-1.4,10.2-3.6,14.9c-1,1.6-8.7,14.5-12.9,21c-1.2,1.9-5,7.7-3,14.5s8.6,11.1,18,15.4
	c8.7,4,10.9,10.5,11.1,11.3v0.1c0.1,0.5,0.9,4.4,2.4,18.6c2,19,18.8,24.6,27.4,24.9c3.3,0.2,6.5,0.2,9.7,0.2
	c19.6-0.3,38.9-4.1,57.1-11.1l0.1-0.1c33.5-14.8,47-40,52.5-58.6C184.5,112.9,185.8,100.4,184.7,88z M122.7,170.3
	c-1.5,0.6-29.4,11.8-61.6,9.9h-0.2c-1,0-10.2-0.6-11.2-9.7c-1.7-15.4-2.6-20.2-2.9-21.6c-0.4-1.8-4.2-16.1-21.7-24.1
	c-1.7-0.8-3.1-1.5-4.3-2.1l0,0c-3.1-2-1.8-5.2-0.9-6.8l0.2-0.3l0.2-0.2c0.1-0.1,0.1-0.2,0.2-0.3c4.8-7.6,10.4-17.2,10.7-17.7
	l0.1-0.2c1.2-2.4,2.3-4.8,3.1-7.3c1.8-5.3,2.8-10.9,3-16.5c0.1-6.8,1.7-13.6,4.7-19.7c8.2-16.4,25.9-35.6,63.8-34.2
	c59.1,2.1,64.4,66.8,64.6,69.6l0.1,0.6C170.5,90.1,177.1,146.2,122.7,170.3L122.7,170.3z"/>
</svg>
